<mxfile host="app.diagrams.net" modified="2021-04-07T13:10:06.872Z" agent="5.0 (Windows NT 10.0; Win64; x64) AppleWebKit/537.36 (KHTML, like Gecko) Chrome/89.0.4389.114 Safari/537.36 Edg/89.0.774.68" etag="3t796ktwlE7uuInh8vRt" version="14.5.4" type="github">
  <diagram id="X0XnABvVEen1k6Uehnqz" name="Page-1">
    <mxGraphModel dx="777" dy="477" grid="1" gridSize="10" guides="1" tooltips="1" connect="1" arrows="1" fold="1" page="1" pageScale="1" pageWidth="980" pageHeight="1390" math="0" shadow="0">
      <root>
        <mxCell id="0" />
        <mxCell id="1" parent="0" />
        <mxCell id="987fqs_uQ6xWltd3es-m-1" value="Поход в ресторан" style="swimlane;html=1;childLayout=stackLayout;resizeParent=1;resizeParentMax=0;horizontal=0;startSize=20;horizontalStack=0;" vertex="1" parent="1">
          <mxGeometry x="80" y="80" width="840" height="560" as="geometry" />
        </mxCell>
        <mxCell id="987fqs_uQ6xWltd3es-m-2" value="Lane 1" style="swimlane;html=1;startSize=20;horizontal=0;" vertex="1" parent="987fqs_uQ6xWltd3es-m-1">
          <mxGeometry x="20" width="820" height="120" as="geometry" />
        </mxCell>
        <mxCell id="987fqs_uQ6xWltd3es-m-3" value="Ресторан" style="swimlane;html=1;startSize=20;horizontal=0;" vertex="1" parent="987fqs_uQ6xWltd3es-m-1">
          <mxGeometry x="20" y="120" width="820" height="200" as="geometry" />
        </mxCell>
        <mxCell id="987fqs_uQ6xWltd3es-m-20" style="edgeStyle=orthogonalEdgeStyle;rounded=0;orthogonalLoop=1;jettySize=auto;html=1;entryX=0;entryY=0.5;entryDx=0;entryDy=0;startArrow=none;startFill=0;endArrow=classic;endFill=1;" edge="1" parent="987fqs_uQ6xWltd3es-m-3" source="987fqs_uQ6xWltd3es-m-13" target="987fqs_uQ6xWltd3es-m-16">
          <mxGeometry relative="1" as="geometry" />
        </mxCell>
        <mxCell id="987fqs_uQ6xWltd3es-m-13" value="" style="shape=mxgraph.bpmn.shape;html=1;verticalLabelPosition=bottom;labelBackgroundColor=#ffffff;verticalAlign=top;align=center;perimeter=ellipsePerimeter;outlineConnect=0;outline=standard;symbol=message;" vertex="1" parent="987fqs_uQ6xWltd3es-m-3">
          <mxGeometry x="60" y="40" width="40" height="40" as="geometry" />
        </mxCell>
        <mxCell id="987fqs_uQ6xWltd3es-m-27" style="edgeStyle=orthogonalEdgeStyle;rounded=0;orthogonalLoop=1;jettySize=auto;html=1;entryX=0;entryY=0.5;entryDx=0;entryDy=0;startArrow=none;startFill=0;endArrow=classic;endFill=1;" edge="1" parent="987fqs_uQ6xWltd3es-m-3" source="987fqs_uQ6xWltd3es-m-16" target="987fqs_uQ6xWltd3es-m-26">
          <mxGeometry relative="1" as="geometry" />
        </mxCell>
        <mxCell id="987fqs_uQ6xWltd3es-m-16" value="Поприветствовать посетителей и найти для них подходящий столик" style="html=1;whiteSpace=wrap;rounded=1;dropTarget=0;" vertex="1" parent="987fqs_uQ6xWltd3es-m-3">
          <mxGeometry x="140" y="18.75" width="160" height="82.5" as="geometry" />
        </mxCell>
        <mxCell id="987fqs_uQ6xWltd3es-m-17" value="" style="shape=message;whiteSpace=wrap;html=1;outlineConnect=0;fillColor=#000000;strokeColor=#ffffff;strokeWidth=2;" vertex="1" parent="987fqs_uQ6xWltd3es-m-16">
          <mxGeometry width="20" height="14" relative="1" as="geometry">
            <mxPoint x="7" y="7" as="offset" />
          </mxGeometry>
        </mxCell>
        <mxCell id="987fqs_uQ6xWltd3es-m-41" style="edgeStyle=orthogonalEdgeStyle;rounded=0;orthogonalLoop=1;jettySize=auto;html=1;entryX=0;entryY=0.5;entryDx=0;entryDy=0;startArrow=none;startFill=0;endArrow=classic;endFill=1;" edge="1" parent="987fqs_uQ6xWltd3es-m-3" source="987fqs_uQ6xWltd3es-m-26" target="987fqs_uQ6xWltd3es-m-46">
          <mxGeometry relative="1" as="geometry">
            <mxPoint x="460" y="60" as="targetPoint" />
          </mxGeometry>
        </mxCell>
        <mxCell id="987fqs_uQ6xWltd3es-m-26" value="" style="shape=mxgraph.bpmn.shape;html=1;verticalLabelPosition=bottom;labelBackgroundColor=#ffffff;verticalAlign=top;align=center;perimeter=ellipsePerimeter;outlineConnect=0;outline=catching;symbol=timer;" vertex="1" parent="987fqs_uQ6xWltd3es-m-3">
          <mxGeometry x="340" y="40" width="40" height="40" as="geometry" />
        </mxCell>
        <mxCell id="987fqs_uQ6xWltd3es-m-29" value="Подождать 5 минут" style="text;html=1;strokeColor=none;fillColor=none;align=center;verticalAlign=middle;whiteSpace=wrap;rounded=0;" vertex="1" parent="987fqs_uQ6xWltd3es-m-3">
          <mxGeometry x="325" y="11.25" width="70" height="28.75" as="geometry" />
        </mxCell>
        <mxCell id="987fqs_uQ6xWltd3es-m-45" value="Готовы сделать заказ" style="text;html=1;strokeColor=none;fillColor=none;align=center;verticalAlign=middle;whiteSpace=wrap;rounded=0;" vertex="1" parent="987fqs_uQ6xWltd3es-m-3">
          <mxGeometry x="400" y="90" width="110" height="30" as="geometry" />
        </mxCell>
        <mxCell id="987fqs_uQ6xWltd3es-m-46" value="" style="shape=mxgraph.bpmn.shape;html=1;verticalLabelPosition=bottom;labelBackgroundColor=#ffffff;verticalAlign=top;align=center;perimeter=rhombusPerimeter;background=gateway;outlineConnect=0;outline=none;symbol=exclusiveGw;" vertex="1" parent="987fqs_uQ6xWltd3es-m-3">
          <mxGeometry x="540" y="40" width="40" height="40" as="geometry" />
        </mxCell>
        <mxCell id="987fqs_uQ6xWltd3es-m-47" value="Нужна помощь с заказом" style="text;html=1;strokeColor=none;fillColor=none;align=center;verticalAlign=middle;whiteSpace=wrap;rounded=0;" vertex="1" parent="987fqs_uQ6xWltd3es-m-3">
          <mxGeometry x="390" y="30" width="130" height="30" as="geometry" />
        </mxCell>
        <mxCell id="987fqs_uQ6xWltd3es-m-51" value="" style="shape=mxgraph.bpmn.shape;html=1;verticalLabelPosition=bottom;labelBackgroundColor=#ffffff;verticalAlign=top;align=center;perimeter=ellipsePerimeter;outlineConnect=0;outline=catching;symbol=message;" vertex="1" parent="987fqs_uQ6xWltd3es-m-3">
          <mxGeometry x="540" y="120" width="40" height="40" as="geometry" />
        </mxCell>
        <mxCell id="987fqs_uQ6xWltd3es-m-48" style="edgeStyle=orthogonalEdgeStyle;rounded=0;orthogonalLoop=1;jettySize=auto;html=1;dashed=1;startArrow=oval;startFill=0;endArrow=classic;endFill=0;" edge="1" parent="987fqs_uQ6xWltd3es-m-3" source="987fqs_uQ6xWltd3es-m-46" target="987fqs_uQ6xWltd3es-m-51">
          <mxGeometry relative="1" as="geometry">
            <mxPoint x="560" y="120" as="targetPoint" />
          </mxGeometry>
        </mxCell>
        <mxCell id="987fqs_uQ6xWltd3es-m-15" style="edgeStyle=orthogonalEdgeStyle;rounded=0;orthogonalLoop=1;jettySize=auto;html=1;entryX=0.5;entryY=1;entryDx=0;entryDy=0;dashed=1;endArrow=classic;endFill=0;startArrow=oval;startFill=0;" edge="1" parent="987fqs_uQ6xWltd3es-m-1" source="987fqs_uQ6xWltd3es-m-12" target="987fqs_uQ6xWltd3es-m-13">
          <mxGeometry relative="1" as="geometry">
            <Array as="points">
              <mxPoint x="320" y="320" />
              <mxPoint x="100" y="320" />
            </Array>
          </mxGeometry>
        </mxCell>
        <mxCell id="987fqs_uQ6xWltd3es-m-22" style="edgeStyle=orthogonalEdgeStyle;rounded=0;orthogonalLoop=1;jettySize=auto;html=1;entryX=0.5;entryY=0;entryDx=0;entryDy=0;startArrow=oval;startFill=0;endArrow=classic;endFill=0;dashed=1;exitX=0.5;exitY=1;exitDx=0;exitDy=0;" edge="1" parent="987fqs_uQ6xWltd3es-m-1" source="987fqs_uQ6xWltd3es-m-16" target="987fqs_uQ6xWltd3es-m-21">
          <mxGeometry relative="1" as="geometry">
            <Array as="points">
              <mxPoint x="240" y="310" />
              <mxPoint x="440" y="310" />
            </Array>
          </mxGeometry>
        </mxCell>
        <mxCell id="987fqs_uQ6xWltd3es-m-35" style="edgeStyle=orthogonalEdgeStyle;rounded=0;orthogonalLoop=1;jettySize=auto;html=1;entryX=0.5;entryY=0;entryDx=0;entryDy=0;startArrow=oval;startFill=0;endArrow=classic;endFill=0;dashed=1;exitX=0.5;exitY=1;exitDx=0;exitDy=0;" edge="1" parent="987fqs_uQ6xWltd3es-m-1" source="987fqs_uQ6xWltd3es-m-26" target="987fqs_uQ6xWltd3es-m-31">
          <mxGeometry relative="1" as="geometry">
            <Array as="points">
              <mxPoint x="380" y="240" />
              <mxPoint x="540" y="240" />
            </Array>
          </mxGeometry>
        </mxCell>
        <mxCell id="987fqs_uQ6xWltd3es-m-4" value="Посетитель" style="swimlane;html=1;startSize=20;horizontal=0;" vertex="1" parent="987fqs_uQ6xWltd3es-m-1">
          <mxGeometry x="20" y="320" width="820" height="240" as="geometry" />
        </mxCell>
        <mxCell id="987fqs_uQ6xWltd3es-m-8" style="edgeStyle=orthogonalEdgeStyle;rounded=0;orthogonalLoop=1;jettySize=auto;html=1;entryX=0;entryY=0.5;entryDx=0;entryDy=0;" edge="1" parent="987fqs_uQ6xWltd3es-m-4" source="987fqs_uQ6xWltd3es-m-5" target="987fqs_uQ6xWltd3es-m-7">
          <mxGeometry relative="1" as="geometry" />
        </mxCell>
        <mxCell id="987fqs_uQ6xWltd3es-m-5" value="" style="ellipse;whiteSpace=wrap;html=1;aspect=fixed;" vertex="1" parent="987fqs_uQ6xWltd3es-m-4">
          <mxGeometry x="60" y="80" width="40" height="40" as="geometry" />
        </mxCell>
        <mxCell id="987fqs_uQ6xWltd3es-m-6" value="Желание кушать" style="text;html=1;strokeColor=none;fillColor=none;align=center;verticalAlign=middle;whiteSpace=wrap;rounded=0;" vertex="1" parent="987fqs_uQ6xWltd3es-m-4">
          <mxGeometry x="60" y="120" width="40" height="20" as="geometry" />
        </mxCell>
        <mxCell id="987fqs_uQ6xWltd3es-m-10" style="edgeStyle=orthogonalEdgeStyle;rounded=0;orthogonalLoop=1;jettySize=auto;html=1;entryX=0;entryY=0.5;entryDx=0;entryDy=0;" edge="1" parent="987fqs_uQ6xWltd3es-m-4" source="987fqs_uQ6xWltd3es-m-7" target="987fqs_uQ6xWltd3es-m-12">
          <mxGeometry relative="1" as="geometry">
            <mxPoint x="260" y="100" as="targetPoint" />
          </mxGeometry>
        </mxCell>
        <mxCell id="987fqs_uQ6xWltd3es-m-7" value="Выбор ресторана" style="rounded=1;whiteSpace=wrap;html=1;" vertex="1" parent="987fqs_uQ6xWltd3es-m-4">
          <mxGeometry x="140" y="80" width="80" height="40" as="geometry" />
        </mxCell>
        <mxCell id="987fqs_uQ6xWltd3es-m-23" style="edgeStyle=orthogonalEdgeStyle;rounded=0;orthogonalLoop=1;jettySize=auto;html=1;entryX=0;entryY=0.5;entryDx=0;entryDy=0;startArrow=none;startFill=0;endArrow=classic;endFill=1;" edge="1" parent="987fqs_uQ6xWltd3es-m-4" source="987fqs_uQ6xWltd3es-m-12" target="987fqs_uQ6xWltd3es-m-21">
          <mxGeometry relative="1" as="geometry" />
        </mxCell>
        <mxCell id="987fqs_uQ6xWltd3es-m-12" value="Зайти внутрь" style="rounded=1;whiteSpace=wrap;html=1;" vertex="1" parent="987fqs_uQ6xWltd3es-m-4">
          <mxGeometry x="260" y="80" width="80" height="40" as="geometry" />
        </mxCell>
        <mxCell id="987fqs_uQ6xWltd3es-m-32" style="edgeStyle=orthogonalEdgeStyle;rounded=0;orthogonalLoop=1;jettySize=auto;html=1;entryX=0;entryY=0.5;entryDx=0;entryDy=0;startArrow=none;startFill=0;endArrow=classic;endFill=1;" edge="1" parent="987fqs_uQ6xWltd3es-m-4" source="987fqs_uQ6xWltd3es-m-21" target="987fqs_uQ6xWltd3es-m-31">
          <mxGeometry relative="1" as="geometry" />
        </mxCell>
        <mxCell id="987fqs_uQ6xWltd3es-m-21" value="Сесть за столик" style="rounded=1;whiteSpace=wrap;html=1;" vertex="1" parent="987fqs_uQ6xWltd3es-m-4">
          <mxGeometry x="380" y="80" width="80" height="40" as="geometry" />
        </mxCell>
        <mxCell id="987fqs_uQ6xWltd3es-m-30" value="Сделать заказ" style="rounded=1;whiteSpace=wrap;html=1;" vertex="1" parent="987fqs_uQ6xWltd3es-m-4">
          <mxGeometry x="660" y="160" width="80" height="40" as="geometry" />
        </mxCell>
        <mxCell id="987fqs_uQ6xWltd3es-m-33" style="edgeStyle=orthogonalEdgeStyle;rounded=0;orthogonalLoop=1;jettySize=auto;html=1;entryX=0;entryY=0.5;entryDx=0;entryDy=0;startArrow=none;startFill=0;endArrow=classic;endFill=1;exitX=0.5;exitY=1;exitDx=0;exitDy=0;" edge="1" parent="987fqs_uQ6xWltd3es-m-4" source="987fqs_uQ6xWltd3es-m-31" target="987fqs_uQ6xWltd3es-m-30">
          <mxGeometry relative="1" as="geometry">
            <Array as="points">
              <mxPoint x="520" y="180" />
            </Array>
          </mxGeometry>
        </mxCell>
        <mxCell id="987fqs_uQ6xWltd3es-m-31" value="" style="shape=mxgraph.bpmn.shape;html=1;verticalLabelPosition=bottom;labelBackgroundColor=#ffffff;verticalAlign=top;align=center;perimeter=rhombusPerimeter;background=gateway;outlineConnect=0;outline=none;symbol=exclusiveGw;" vertex="1" parent="987fqs_uQ6xWltd3es-m-4">
          <mxGeometry x="500" y="80" width="40" height="40" as="geometry" />
        </mxCell>
        <mxCell id="987fqs_uQ6xWltd3es-m-34" value="Да" style="text;html=1;strokeColor=none;fillColor=none;align=center;verticalAlign=middle;whiteSpace=wrap;rounded=0;" vertex="1" parent="987fqs_uQ6xWltd3es-m-4">
          <mxGeometry x="520" y="160" width="40" height="20" as="geometry" />
        </mxCell>
        <mxCell id="987fqs_uQ6xWltd3es-m-37" value="Продолжить выбирать" style="rounded=1;whiteSpace=wrap;html=1;" vertex="1" parent="987fqs_uQ6xWltd3es-m-4">
          <mxGeometry x="580" y="80" width="80" height="40" as="geometry" />
        </mxCell>
        <mxCell id="987fqs_uQ6xWltd3es-m-36" style="edgeStyle=orthogonalEdgeStyle;rounded=0;orthogonalLoop=1;jettySize=auto;html=1;startArrow=none;startFill=0;endArrow=classic;endFill=1;entryX=0;entryY=0.5;entryDx=0;entryDy=0;" edge="1" parent="987fqs_uQ6xWltd3es-m-4" source="987fqs_uQ6xWltd3es-m-31" target="987fqs_uQ6xWltd3es-m-37">
          <mxGeometry relative="1" as="geometry">
            <mxPoint x="580" y="100" as="targetPoint" />
          </mxGeometry>
        </mxCell>
        <mxCell id="987fqs_uQ6xWltd3es-m-38" value="Нет" style="text;html=1;strokeColor=none;fillColor=none;align=center;verticalAlign=middle;whiteSpace=wrap;rounded=0;" vertex="1" parent="987fqs_uQ6xWltd3es-m-4">
          <mxGeometry x="540" y="80" width="30" height="20" as="geometry" />
        </mxCell>
        <mxCell id="987fqs_uQ6xWltd3es-m-53" style="edgeStyle=orthogonalEdgeStyle;rounded=0;orthogonalLoop=1;jettySize=auto;html=1;startArrow=none;startFill=0;endArrow=classic;endFill=1;entryX=0;entryY=0.5;entryDx=0;entryDy=0;" edge="1" parent="987fqs_uQ6xWltd3es-m-4" source="987fqs_uQ6xWltd3es-m-37" target="987fqs_uQ6xWltd3es-m-31">
          <mxGeometry relative="1" as="geometry">
            <mxPoint x="490" y="130" as="targetPoint" />
            <Array as="points">
              <mxPoint x="620" y="130" />
              <mxPoint x="500" y="130" />
            </Array>
          </mxGeometry>
        </mxCell>
        <mxCell id="987fqs_uQ6xWltd3es-m-54" style="edgeStyle=orthogonalEdgeStyle;rounded=0;orthogonalLoop=1;jettySize=auto;html=1;startArrow=oval;startFill=0;endArrow=classic;endFill=0;entryX=0.5;entryY=0;entryDx=0;entryDy=0;exitX=0.5;exitY=0;exitDx=0;exitDy=0;dashed=1;" edge="1" parent="987fqs_uQ6xWltd3es-m-1" source="987fqs_uQ6xWltd3es-m-37" target="987fqs_uQ6xWltd3es-m-46">
          <mxGeometry relative="1" as="geometry">
            <mxPoint x="570" y="150" as="targetPoint" />
            <Array as="points">
              <mxPoint x="640" y="140" />
              <mxPoint x="580" y="140" />
            </Array>
          </mxGeometry>
        </mxCell>
        <mxCell id="987fqs_uQ6xWltd3es-m-52" style="edgeStyle=orthogonalEdgeStyle;rounded=0;orthogonalLoop=1;jettySize=auto;html=1;startArrow=none;startFill=0;endArrow=classic;endFill=1;" edge="1" parent="1" source="987fqs_uQ6xWltd3es-m-46">
          <mxGeometry relative="1" as="geometry">
            <mxPoint x="760" y="260" as="targetPoint" />
          </mxGeometry>
        </mxCell>
      </root>
    </mxGraphModel>
  </diagram>
</mxfile>
